<svg width="90" height="42" viewBox="0 0 96 48" fill="none" xmlns="http://www.w3.org/2000/svg">
<path d="M47.52 19.2387H96V38.4724C96 41.0952 93.84 43.2568 91.2 43.2568C88.56 43.2568 86.4 41.0952 86.4 38.4724V28.8459H76.8V38.4532C76.8 41.0952 74.64 43.2568 72 43.2568C69.36 43.2568 67.2 41.0952 67.2 38.4532V28.8459H47.52C46.3156 34.6648 42.9993 39.8306 38.2116 43.3456C33.4238 46.8606 27.5044 48.4755 21.5966 47.8783C15.6887 47.2811 10.2116 44.5142 6.22298 40.112C2.23439 35.7098 0.0173313 29.9847 1.21338e-05 24.0423C-0.00596939 18.086 2.19976 12.34 6.189 7.91975C10.1782 3.49946 15.6664 0.72025 21.588 0.121653C27.5097 -0.476943 33.4423 1.14778 38.2343 4.68041C43.0262 8.21304 46.3356 13.4015 47.52 19.2387V19.2387ZM24 38.4532C27.8191 38.4532 31.4818 36.9349 34.1823 34.2323C36.8829 31.5298 38.4 27.8643 38.4 24.0423C38.4 20.2203 36.8829 16.5548 34.1823 13.8523C31.4818 11.1497 27.8191 9.63144 24 9.63144C20.1809 9.63144 16.5182 11.1497 13.8177 13.8523C11.1172 16.5548 9.60001 20.2203 9.60001 24.0423C9.60001 27.8643 11.1172 31.5298 13.8177 34.2323C16.5182 36.9349 20.1809 38.4532 24 38.4532V38.4532Z" fill="#1d2b4f"/>
</svg>
